<?xml version="1.0" encoding="UTF-8" standalone="no"?>
<!DOCTYPE svg PUBLIC "-//W3C//DTD SVG 20010904//EN"
              "http://www.w3.org/TR/2001/REC-SVG-20010904/DTD/svg10.dtd">
<svg xmlns="http://www.w3.org/2000/svg"
     width="30px" height="30px"
     viewBox="0 0 420 254">
  <path id="Selection"
        fill="black" stroke="black" stroke-width="1"
        d="M 276.00,12.00
           C 276.00,12.00 248.02,9.20 248.02,9.20
             244.72,8.12 241.49,5.07 246.15,3.03
             248.70,1.91 253.20,2.00 256.00,2.00
             256.00,2.00 293.00,1.00 293.00,1.00
             298.17,0.99 310.88,-1.48 313.52,4.23
             314.30,5.75 314.13,7.41 313.52,8.91
             310.63,15.12 302.73,15.06 297.00,15.05
             294.67,14.97 289.13,14.13 287.42,15.05
             285.34,16.30 284.40,19.85 283.67,22.00
             283.67,22.00 277.98,40.00 277.98,40.00
             277.98,40.00 253.00,117.00 253.00,117.00
             255.25,117.64 259.97,119.80 261.91,119.34
             264.60,118.71 267.49,114.11 269.30,112.00
             273.45,107.16 278.91,102.09 284.00,98.24
             296.25,88.95 314.55,82.18 330.00,82.00
             349.85,81.77 363.96,84.59 381.00,95.44
             393.45,103.36 405.47,116.49 411.56,130.00
             417.93,144.12 420.18,155.54 420.00,171.00
             419.89,179.71 417.52,188.82 414.66,197.00
             411.44,206.17 406.32,214.65 400.00,222.00
             367.43,259.90 309.28,262.99 274.01,227.00
             267.47,220.32 261.79,212.46 257.78,204.00
             253.22,194.37 250.10,182.67 250.00,172.00
             250.00,172.00 229.00,171.15 229.00,171.15
             229.00,171.15 216.00,160.00 216.00,160.00
             216.00,160.00 193.00,137.00 193.00,137.00
             193.00,137.00 146.00,91.04 146.00,91.04
             146.00,91.04 127.00,73.00 127.00,73.00
             126.49,76.31 123.46,84.54 124.35,86.79
             125.34,89.33 132.41,92.64 135.00,94.36
             141.55,98.70 148.82,105.04 153.91,111.04
             165.71,124.96 173.78,145.68 174.00,164.00
             174.19,180.62 171.04,194.27 163.22,209.00
             158.15,218.54 150.33,227.70 142.00,234.54
             133.76,241.29 124.13,246.41 114.00,249.66
             75.97,261.85 34.31,247.17 13.06,213.00
             5.46,200.77 1.53,186.25 0.17,172.00
             -0.42,165.81 1.20,153.16 2.65,147.00
             5.69,134.15 11.80,122.29 20.00,112.00
             28.61,101.21 40.24,92.54 53.00,87.23
             73.08,78.86 88.14,78.81 109.00,83.00
             109.00,83.00 122.09,43.00 122.09,43.00
             124.61,36.72 128.61,31.01 128.00,24.00
             123.28,26.21 119.15,28.23 114.04,25.55
             104.47,20.52 106.52,5.02 118.00,3.38
             124.73,2.42 127.13,6.99 131.28,10.73
             135.35,14.38 139.72,14.14 142.26,17.39
             145.92,22.07 139.45,34.60 138.00,40.00
             138.00,40.00 169.00,50.95 169.00,50.95
             169.00,50.95 222.00,70.05 222.00,70.05
             222.00,70.05 254.00,81.00 254.00,81.00
             254.00,81.00 264.33,47.00 264.33,47.00
             264.33,47.00 276.00,12.00 276.00,12.00 Z
           M 248.00,95.00
           C 248.00,95.00 134.10,54.00 134.10,54.00
             134.10,54.00 134.10,58.00 134.10,58.00
             134.10,58.00 152.01,76.09 152.01,76.09
             152.01,76.09 190.00,113.00 190.00,113.00
             190.00,113.00 213.00,135.00 213.00,135.00
             213.00,135.00 215.00,128.00 215.00,128.00
             213.00,127.29 211.17,126.84 210.06,124.78
             208.05,121.03 214.46,107.84 218.10,105.87
             220.40,104.96 222.62,105.98 225.00,105.87
             225.00,105.87 230.00,105.87 230.00,105.87
             230.00,105.87 244.00,111.00 244.00,111.00
             244.00,111.00 248.00,95.00 248.00,95.00 Z
           M 116.00,104.00
           C 116.00,104.00 97.81,158.00 97.81,158.00
             95.82,163.25 94.03,173.44 87.00,173.63
             85.19,173.68 83.59,172.95 82.31,171.69
             77.63,167.02 82.86,156.43 84.67,151.00
             84.67,151.00 97.95,113.00 97.95,113.00
             98.91,110.35 102.41,101.93 100.89,99.59
             99.06,96.79 88.22,96.97 85.00,97.00
             75.07,97.12 63.79,100.22 55.00,104.78
             45.73,109.60 38.15,115.76 31.67,124.00
             0.11,164.13 21.58,223.65 72.00,235.11
             80.97,237.15 86.94,237.39 96.00,236.13
             104.80,234.90 112.12,232.99 120.00,228.69
             160.15,206.77 169.85,152.35 137.96,119.00
             131.72,112.47 124.84,106.53 116.00,104.00 Z
           M 267.00,173.00
           C 267.71,205.46 298.83,234.62 331.00,235.00
             343.36,235.14 352.60,234.00 364.00,228.68
             389.40,216.82 403.32,191.37 403.00,164.00
             402.91,156.61 400.35,145.69 397.22,139.00
             390.58,124.85 380.88,113.87 367.00,106.49
             336.62,90.33 296.68,99.57 278.00,129.00
             278.00,129.00 325.00,153.69 325.00,153.69
             325.00,153.69 335.98,159.35 335.98,159.35
             344.98,164.90 343.18,173.83 331.00,174.00
             331.00,174.00 306.00,174.00 306.00,174.00
             306.00,174.00 289.00,173.00 289.00,173.00
             289.00,173.00 267.00,173.00 267.00,173.00 Z
           M 230.00,152.00
           C 230.00,152.00 236.33,133.00 236.33,133.00
             236.33,133.00 236.94,125.49 236.94,125.49
             236.94,125.49 229.00,121.00 229.00,121.00
             229.00,121.00 222.69,136.00 222.69,136.00
             222.69,136.00 221.23,143.00 221.23,143.00
             221.23,143.00 230.00,152.00 230.00,152.00 Z
           M 256.00,134.00
           C 256.00,134.00 248.00,131.00 248.00,131.00
             248.00,131.00 240.00,157.00 240.00,157.00
             240.00,157.00 250.00,157.00 250.00,157.00
             250.00,157.00 256.00,134.00 256.00,134.00 Z
           M 302.00,158.00
           C 302.00,158.00 271.00,143.00 271.00,143.00
             271.00,143.00 267.00,158.00 267.00,158.00
             267.00,158.00 287.00,158.00 287.00,158.00
             287.00,158.00 302.00,158.00 302.00,158.00 Z" />
</svg>
